<svg xmlns="http://www.w3.org/2000/svg" viewBox="0 0 512 512">
  <ellipse cx="256" cy="256" rx="252" ry="252" fill="#C83C28"/>
  <polygon points="100,380 140,440 200,460 300,460 370,440 410,380 420,300 400,200 360,120 280,80 230,80 150,120 90,200 80,300" fill="#DC5537"/>
  <polygon points="150,120 230,80 280,80 360,120 400,200 350,160 280,130 230,130 160,160" fill="#F57850"/>
  <polygon points="230,140 270,210 250,210 290,310 220,230 240,230 200,140" fill="white"/>
  <polygon points="235,143 268,207 255,207 285,303 225,233 238,233 210,143" fill="#FFFFCC"/>
</svg>